<?xml version="1.0" encoding="UTF-8"?><svg id="a" xmlns="http://www.w3.org/2000/svg" width="151.47" height="38.25" viewBox="0 0 151.47 38.25"><path d="M.53,4.68l4.51-1.06c.43-.09,.87,.23,.87,.68v15.62c0,.38-.32,.7-.7,.7H.7c-.38,0-.7-.32-.7-.7V5.36c0-.32,.23-.6,.53-.68Z" fill="#00f050"/><path d="M8.71,2.75l4.51-1.06c.43-.11,.87,.23,.87,.68V19.94c0,.38-.32,.7-.7,.7h-4.51c-.38,0-.7-.32-.7-.7V3.45c0-.34,.21-.62,.53-.7Z" fill="#00f050"/><path d="M16.85,.81l2.27-.66c.13-.04,.26-.04,.4,0l2.27,.66c.3,.09,.49,.36,.49,.66V19.92c0,.38-.3,.7-.7,.7h-4.53c-.38,0-.7-.3-.7-.7V1.47c.02-.3,.21-.59,.51-.66Z" fill="#00f050"/><path d="M25.39,1.68l4.51,1.06c.32,.08,.55,.36,.55,.68V19.91c0,.38-.32,.7-.7,.7h-4.51c-.38,0-.7-.32-.7-.7V2.34c-.02-.43,.42-.76,.85-.66Z" fill="#00f050"/><path d="M30.45,23.59v4.51c0,.38-.32,.7-.7,.7H15.66c-.38,0-.7-.32-.7-.7v-4.51c0-.38,.32-.7,.7-.7h14.09c.38,0,.7,.3,.7,.7Z" fill="#00f050"/><path d="M98.33,28.08h1.41v6.78h-1.42l-.05-.98c-.2,.35-.47,.63-.81,.84-.34,.21-.74,.32-1.2,.32-.5,0-.97-.09-1.4-.28-.44-.19-.83-.45-1.16-.79-.33-.33-.59-.72-.77-1.15-.19-.44-.28-.91-.28-1.41s.09-.94,.27-1.36c.18-.43,.43-.8,.75-1.13,.32-.32,.69-.57,1.11-.75,.43-.19,.88-.28,1.36-.28s.93,.11,1.3,.34c.38,.22,.69,.51,.94,.85l-.06-1Zm-2.1,5.6c.4,0,.75-.1,1.04-.29,.3-.2,.53-.47,.69-.8,.17-.33,.25-.71,.25-1.11s-.08-.78-.25-1.12c-.17-.33-.4-.6-.7-.79-.29-.2-.64-.3-1.04-.3s-.75,.1-1.08,.3-.58,.47-.77,.8c-.19,.33-.28,.71-.28,1.11s.1,.78,.29,1.12c.2,.33,.46,.59,.78,.79,.33,.19,.68,.29,1.07,.29Z"/><path d="M105.39,32.93l1.26,.69c-.31,.43-.7,.77-1.17,1.03-.47,.26-.98,.39-1.53,.39-.62,0-1.19-.16-1.71-.48-.51-.32-.92-.75-1.23-1.29-.3-.54-.45-1.14-.45-1.8,0-.5,.09-.96,.26-1.39,.18-.43,.42-.81,.73-1.14,.31-.33,.67-.59,1.09-.77,.41-.19,.85-.28,1.32-.28,.55,0,1.06,.13,1.53,.39,.47,.26,.87,.6,1.17,1.04l-1.26,.69c-.19-.23-.41-.4-.67-.52-.25-.12-.51-.18-.78-.18-.37,0-.71,.1-1.01,.31-.3,.2-.54,.46-.71,.79-.17,.33-.26,.68-.26,1.07s.09,.74,.26,1.07c.18,.33,.41,.59,.71,.79,.3,.2,.64,.3,1,.3,.28,0,.55-.06,.8-.19,.25-.13,.47-.29,.65-.5Z"/><path d="M113,28.08h1.41v6.78h-1.42l-.06-.98c-.2,.35-.47,.63-.81,.84-.34,.21-.74,.32-1.2,.32-.5,0-.96-.09-1.4-.28-.44-.19-.82-.45-1.16-.79-.33-.33-.59-.72-.77-1.15-.19-.44-.28-.91-.28-1.41s.09-.94,.27-1.36c.18-.43,.43-.8,.75-1.13s.69-.57,1.11-.75c.43-.19,.88-.28,1.36-.28s.93,.11,1.3,.34c.38,.22,.69,.51,.94,.85l-.06-1Zm-2.1,5.6c.4,0,.75-.1,1.04-.29,.3-.2,.53-.47,.69-.8,.17-.33,.25-.71,.25-1.11s-.08-.78-.25-1.12c-.17-.33-.4-.6-.7-.79-.29-.2-.64-.3-1.04-.3s-.75,.1-1.08,.3c-.33,.2-.58,.47-.77,.8-.19,.33-.28,.71-.28,1.11s.1,.78,.29,1.12c.2,.33,.46,.59,.78,.79,.33,.19,.68,.29,1.07,.29Z"/><path d="M120.91,24.68h1.41v10.18h-1.41v-1c-.22,.35-.51,.64-.87,.85-.36,.21-.78,.32-1.26,.32s-.95-.09-1.38-.28c-.43-.19-.81-.44-1.14-.77-.33-.33-.58-.71-.77-1.14-.19-.43-.28-.89-.28-1.38s.09-.95,.28-1.38c.19-.43,.44-.81,.77-1.14,.33-.33,.71-.59,1.14-.77,.43-.19,.89-.28,1.38-.28s.9,.11,1.26,.33c.36,.21,.65,.49,.87,.84v-4.38Zm-2.11,8.99c.4,0,.75-.1,1.04-.29,.3-.2,.53-.47,.69-.8,.17-.33,.25-.71,.25-1.11s-.08-.78-.25-1.12c-.17-.33-.4-.6-.7-.79-.29-.2-.64-.3-1.04-.3s-.75,.1-1.08,.3c-.32,.2-.58,.47-.77,.8-.19,.33-.29,.71-.29,1.11s.1,.78,.29,1.12c.2,.33,.46,.59,.78,.79,.32,.19,.68,.29,1.06,.29Z"/><path d="M126.84,35.04c-.62,0-1.19-.16-1.71-.48-.51-.32-.92-.75-1.23-1.29-.3-.54-.46-1.14-.46-1.8,0-.5,.09-.96,.26-1.39,.18-.43,.42-.81,.73-1.14,.31-.33,.67-.59,1.08-.77,.41-.19,.85-.28,1.32-.28,.52,0,1,.11,1.43,.33,.43,.21,.81,.51,1.11,.89,.31,.38,.53,.81,.68,1.3,.14,.49,.19,1.01,.13,1.56h-5.23c.06,.31,.17,.59,.34,.85,.17,.25,.39,.45,.65,.59,.27,.14,.56,.22,.89,.22,.34,0,.66-.09,.94-.26,.29-.17,.52-.41,.7-.71l1.43,.33c-.27,.6-.68,1.09-1.23,1.48-.55,.38-1.16,.57-1.84,.57Zm-1.93-4.15h3.85c-.04-.33-.16-.62-.35-.88-.18-.27-.41-.48-.68-.63-.27-.16-.57-.24-.9-.24s-.62,.08-.89,.23c-.27,.15-.5,.36-.68,.63-.18,.26-.29,.56-.35,.89Z"/><path d="M131.32,34.86v-6.78h1.41v.72c.24-.28,.52-.5,.86-.66,.34-.16,.71-.24,1.11-.24,.48,0,.93,.12,1.34,.35,.41,.23,.73,.54,.97,.92,.24-.38,.56-.69,.96-.92,.4-.24,.85-.35,1.33-.35s.96,.12,1.37,.37c.41,.24,.74,.57,.98,.98,.24,.41,.37,.87,.37,1.37v4.25h-1.41v-3.89c0-.3-.07-.57-.22-.82-.14-.25-.34-.45-.58-.6-.24-.15-.52-.23-.81-.23s-.57,.07-.81,.22c-.25,.14-.44,.34-.58,.59-.14,.25-.22,.53-.22,.85v3.89h-1.41v-3.89c0-.32-.07-.6-.22-.85-.15-.25-.34-.45-.59-.59-.24-.14-.52-.22-.81-.22s-.57,.08-.81,.23c-.25,.15-.44,.35-.58,.6-.15,.25-.22,.52-.22,.82v3.89h-1.41Z"/><path d="M150.83,20.62h-4.63c-.36,0-.64-.28-.64-.64v-4.63c0-.36,.28-.64,.64-.64h4.63c.36,0,.64,.28,.64,.64v4.63c0,.36-.28,.64-.64,.64Z" fill="#00f050"/><path d="M147.73,28.08h1.51l-3.72,10.18h-1.5l1.23-3.39-2.44-6.78h1.54l1.6,4.85,1.78-4.85Z"/><path d="M115.65,1.06c-1.18-.71-2.5-1.06-3.98-1.06-1.36,0-2.61,.32-3.76,.95-1.14,.63-2.07,1.48-2.78,2.52-.69-1.04-1.63-1.89-2.78-2.52-1.14-.63-2.41-.95-3.77-.95-1.01,0-1.96,.19-2.86,.54-.9,.35-1.7,.86-2.37,1.51V1.04c0-.34-.26-.6-.6-.6h-4.37c-.34,0-.6,.26-.6,.6V20.13h-.02c0,.34,.26,.6,.6,.6h4.37c.34,0,.6-.26,.6-.6V9.43c0-.69,.17-1.33,.5-1.9,.35-.58,.8-1.03,1.36-1.36,.58-.35,1.22-.52,1.91-.52s1.33,.17,1.91,.5c.58,.34,1.03,.78,1.36,1.36,.34,.56,.5,1.2,.5,1.92v10.7c0,.34,.26,.6,.6,.6h4.37c.34,0,.6-.26,.6-.6V9.43c0-.71,.17-1.35,.5-1.92,.35-.58,.8-1.03,1.36-1.36,.58-.34,1.21-.5,1.92-.5s1.33,.17,1.91,.52c.56,.34,1.01,.78,1.35,1.36,.35,.56,.52,1.19,.52,1.9v10.7c0,.34,.26,.6,.6,.6h4.37c.34,0,.6-.26,.6-.6V7.9c0-1.46-.36-2.78-1.07-3.98-.71-1.2-1.66-2.15-2.86-2.86h0Z"/><path d="M85.49,1.01c0-.34-.26-.6-.6-.6h-4.65c-.32,.04-.58,.3-.58,.63v.46c-1.59-.95-3.46-1.5-5.45-1.5-5.87,0-10.63,4.76-10.63,10.63s4.76,10.63,10.63,10.63c1.99,0,3.86-.55,5.45-1.5v.36c0,.34,.26,.6,.6,.6h4.65c.34,0,.6-.26,.6-.6V3.21c0-.07,0-.17-.02-.24V1.01Zm-11.28,14.56c-2.73,0-4.94-2.21-4.94-4.94s2.21-4.94,4.94-4.94,4.94,2.21,4.94,4.94-2.21,4.94-4.94,4.94Z"/><path d="M142.87,1.01c0-.34-.26-.6-.6-.6h-4.65c-.32,.04-.58,.3-.58,.63v.46c-1.59-.95-3.46-1.5-5.45-1.5-5.87,0-10.63,4.76-10.63,10.63s4.76,10.63,10.63,10.63c1.99,0,3.86-.55,5.45-1.5v.36c0,.34,.26,.6,.6,.6h4.65c.34,0,.6-.26,.6-.6V3.21c0-.07,0-.17-.02-.24V1.01Zm-11.28,14.56c-2.73,0-4.94-2.21-4.94-4.94s2.21-4.94,4.94-4.94,4.94,2.21,4.94,4.94-2.21,4.94-4.94,4.94Z"/><path d="M61.61,.45h-4.37c-.34,0-.6,.26-.6,.6,0,.06,0,.09-.02,.19v.42c-1.65-1.04-3.6-1.65-5.69-1.65-5.87,0-10.63,4.76-10.63,10.63s4.76,10.63,10.63,10.63c2.09,0,4.04-.61,5.69-1.65v1.67c0,.69-.15,1.31-.47,1.83-.32,.52-.73,.95-1.27,1.31-.54,.35-1.14,.62-1.83,.78-.67,.17-1.36,.26-2.11,.26h-.26c-.58-.02-1.16-.17-1.72-.39-.63-.24-1.19-.62-1.7-1.1-.11-.13-.22-.24-.34-.37-.04-.06-.07-.09-.11-.13-.17-.22-.32-.45-.45-.69-.02-.02-.02-.04-.04-.06-.09-.22-.34-.39-.62-.35-.26,.02-.56,.06-.84,.09-1.33,.17-2.8,.34-3.74,.47-.3,.04-.5,.3-.45,.6,.07,.37,.21,.76,.32,1.01,.56,1.27,1.35,2.39,2.35,3.38,1.01,.97,2.17,1.74,3.48,2.3,1.14,.5,2.32,.78,3.55,.84,.19,.02,.37,.02,.56,.02,1.51,0,2.93-.24,4.28-.69,1.35-.47,2.56-1.12,3.59-1.98,1.05-.86,1.89-1.89,2.48-3.1,.62-1.19,.91-2.54,.91-4.03V1.04c0-.34-.26-.6-.6-.6Zm-10.68,15.12c-2.73,0-4.94-2.21-4.94-4.94s2.21-4.94,4.94-4.94,4.94,2.21,4.94,4.94-2.21,4.94-4.94,4.94Z"/></svg>