<svg width="147" height="40" viewBox="0 0 147 40" fill="none" xmlns="http://www.w3.org/2000/svg">
<path d="M106.642 20C106.642 8.96378 115.605 0 126.666 0C137.728 0 146.666 8.96378 146.666 20C146.666 31.0362 137.703 39.9999 126.666 39.9999C115.605 40.0249 106.642 31.0611 106.642 20Z" fill="#FFD000"/>
<path d="M63.0711 1.19849L54.4319 26.0424H54.2321L45.5929 1.19849H35.0062L49.4381 38.6766H59.0261L73.483 1.19849H63.0711ZM83.2458 24.9687L87.3657 12.784H87.5654L91.7102 24.9687H83.2458ZM92.7839 1.19849H82.322L67.915 38.6766H78.0773L80.5492 32.4344H94.3569L96.8538 38.6766H107.191L92.7839 1.19849ZM22.9713 20.9488C22.9713 25.8177 22.6217 31.136 16.3545 31.136C10.0874 31.136 9.73781 25.8177 9.73781 20.9488V1.22346H0V22.2971C0 27.1161 0.19975 31.8851 3.92009 35.5056C7.04119 38.5767 11.96 39.6753 16.3296 39.6753C20.6991 39.6753 25.6179 38.5767 28.764 35.5056C32.4843 31.8851 32.6841 27.1161 32.6841 22.2971V1.19849H22.9713V20.9488Z" fill="#004B78"/>
</svg>
