<?xml version="1.0" encoding="UTF-8"?><svg id="a" xmlns="http://www.w3.org/2000/svg" width="134.45" height="34.1" viewBox="0 0 134.45 34.1"><g id="b"><g id="c"><g id="d"><g id="e"><path id="f" d="M54.67,26.89h-5.1c-1.97,0-3.5-.15-4.57-.46-1.05-.29-1.95-.83-2.69-1.6-1.62-1.69-2.43-4.07-2.43-7.13,0-3.37,1.03-5.95,3.11-7.7,.66-.55,1.36-.94,2.1-1.16s1.71-.33,2.95-.33h6.63v3.28h-5.1c-1.33,0-2.3,.09-2.91,.28-.63,.18-1.14,.53-1.55,1.07-.28,.37-.46,.74-.55,1.09-.09,.35-.17,.98-.24,1.9h10.35v3.26h-10.35c.13,1.56,.59,2.67,1.4,3.3,.79,.63,2.14,.94,4.01,.94h4.94v3.28Zm15.28-4.22h0c0,.83-.2,1.6-.63,2.34-.4,.74-.92,1.25-1.55,1.53-.53,.24-1.55,.35-3.02,.35h-7.62v-2.87h6.57c.85,0,1.42-.02,1.71-.06,.61-.07,.92-.44,.92-1.1,0-.59-.24-.98-.72-1.16-.26-.09-.77-.13-1.53-.13h-2.23c-1.55,0-2.69-.28-3.41-.83-1.01-.79-1.51-1.92-1.51-3.37s.52-2.49,1.55-3.26c.55-.42,1.55-.65,2.98-.65h7.86v2.87h-6.54c-.72,0-1.2,.04-1.42,.11-.42,.17-.63,.53-.63,1.07,0,.63,.26,1.01,.77,1.18,.28,.09,.81,.15,1.62,.15h2.15c1.47,0,2.62,.31,3.42,.98,.81,.66,1.22,1.62,1.22,2.85m10.83,4.22h-2.69c-1.62,0-2.76-.37-3.43-1.12-.68-.76-1.01-2.06-1.01-3.92v-5.51h-2.34v-2.87h2.34v-4.95h3.7v4.95h3.43v2.87h-3.43v4.86c0,1.16,.13,1.92,.37,2.28,.26,.35,.77,.53,1.58,.53h1.47v2.87Zm8.67-8.16h0v2.85h-1.75c-.92,0-1.38,.42-1.38,1.25s.66,1.18,1.99,1.18h1.14v2.87h-.96c-1.23,0-1.99,0-2.28-.02-.9-.09-1.6-.33-2.1-.7-1.03-.75-1.55-1.84-1.55-3.28,0-.92,.22-1.73,.68-2.45,.44-.7,1.03-1.18,1.77-1.42,.63-.2,1.64-.3,3.04-.3h1.4Zm0-5.27h0v2.87h-5.91v-2.87h5.91Zm0-4.18h0v2.69h-1.84l1.84-2.69Zm21.47,17.6h-5.05c-1.34,0-2.41-.13-3.2-.4-.81-.28-1.51-.75-2.12-1.44-1.16-1.29-1.73-2.96-1.73-5.01,0-2.32,.68-4.07,2.06-5.25,1.03-.88,2.69-1.33,4.99-1.33h5.05v2.87h-4.4c-1.38,0-2.39,.29-3,.88-.61,.59-.92,1.57-.92,2.91s.33,2.36,1.01,2.97c.68,.61,1.79,.92,3.31,.92h4v2.87Zm6.57-14.81h-3.7v-3.57h3.7v3.57Zm0,14.81h-3.7V13.46h3.7v13.43Zm-28.05-14.92h0v-2.69l.53-.77h3.39l-3.61,3.46h-.31Zm0,14.92h0v-2.87h3.13v-2.43h-3.13v-2.85h3.13v-.22c0-.83-.2-1.38-.61-1.69-.41-.31-1.14-.48-2.21-.48h-.31v-2.87h.31c1.44,0,2.39,.06,2.87,.15,.99,.18,1.8,.63,2.43,1.34,.81,.94,1.22,2.39,1.22,4.36v7.57h-6.83Zm37.88-10.77h-.07c-2.17,0-3.26,1.34-3.26,4.07s1.12,4.03,3.33,4.05v2.84h-.13c-2.17,0-3.87-.61-5.12-1.84-1.23-1.23-1.86-2.93-1.86-5.08s.64-3.77,1.92-5.01c1.29-1.23,3-1.86,5.17-1.86h.02v2.84Zm3.33,4.07c0-2.69-1.12-4.03-3.33-4.07v-2.84c2.23,0,3.98,.63,5.23,1.86,1.25,1.23,1.88,2.96,1.88,5.17s-.64,3.76-1.93,4.95c-1.27,1.2-2.98,1.79-5.17,1.8v-2.84h.04c2.19,0,3.3-1.34,3.3-4.05" fill="#1d1d1b"/></g><g id="g"><path id="h" d="M.76,15.2L15.2,.78c1.02-1.04,2.69-1.04,3.71,0l14.42,14.42c1.02,1.02,1.02,2.68,0,3.7l-14.42,14.42c-1.02,1.04-2.69,1.04-3.71,0L.76,18.9c-1.02-1.02-1.02-2.68,0-3.7" fill="#fff"/></g><g id="i"><path id="j" d="M17.05,33.5c-.51,0-1.04-.21-1.43-.59L1.2,18.47c-.38-.38-.59-.91-.59-1.42l6.22,.35,.4,6.77,.38-6.73,8.54,.51,.48,8.05-6.18,.37,6.22,.37,.4,6.76Z" fill="#28acc0"/></g><g id="k"><path id="l" d="M25.99,25.4h0l-.06,.06-8.43,.49,.48-8,8.48-.49-.46,7.94Zm7.51-8.35h0c0,.51-.19,1.04-.59,1.42l-5.2,5.21-.37-6.28,6.15-.35Zm-9.29,10.12l-5.72,5.74c-.4,.38-.91,.59-1.43,.59l.4-6.71,6.76,.38Z" fill="#28acc0"/></g><g id="m"><path id="n" d="M17.05,.6c.53,0,1.04,.21,1.43,.59l14.42,14.44c.4,.38,.59,.91,.59,1.42l-6.2-.35-.4-6.77-.4,6.73-8.53-.51-.48-8.05,6.18-.37-6.23-.37-.4-6.76Z" fill="#7ac6c0"/></g><g id="o"><path id="p" d="M9.9,6.93h0L15.62,1.19c.4-.38,.92-.59,1.43-.59l-.38,6.71-6.77-.38Zm-1.77,1.77h0l.05-.06,8.43-.49-.46,8-8.5,.49,.48-7.94ZM1.2,15.63l5.21-5.21,.37,6.28-6.17,.35c0-.51,.21-1.04,.59-1.42" fill="#c0e1d7"/></g></g></g><g id="q"><path id="r" d="M17.05,.61l1.15,15.28,15.28,1.15-15.28,1.15-1.15,15.28-1.15-15.28L.62,17.05l15.28-1.15L17.05,.61Z" fill="#fff"/></g></g></svg>