<?xml version="1.0" encoding="utf-8"?>
<!-- Generator: Adobe Illustrator 26.5.0, SVG Export Plug-In . SVG Version: 6.00 Build 0)  -->
<svg version="1.1" id="Layer_1" xmlns="http://www.w3.org/2000/svg" xmlns:xlink="http://www.w3.org/1999/xlink" x="0px" y="0px"
	 viewBox="0 0 920 1040" style="enable-background:new 0 0 920 1040;" xml:space="preserve">
<style type="text/css">
	.st0{fill:#E34E26;}
	.st1{fill:#EF662A;}
	.st2{fill:#FFFFFF;}
	.st3{fill:#EBEBEB;}
</style>
<g id="Guides_to_delete">
	<g>
		<polygon class="st0" points="85.2,936 1.8,0 918.2,0 834.7,936.1 459.8,1040 		"/>
		<polygon class="st1" points="460,76.5 460,960.5 763.2,876.5 834.6,76.5 		"/>
		<polygon class="st2" points="172.5,191.3 203.4,538.5 601.3,538.5 588,687.4 459.9,722 332,687.4 323.4,591.8 208.2,591.8 
			224.7,776.1 459.8,841.4 695.3,776.1 726.8,423.7 308.4,423.7 297.9,306.1 736.9,306.1 737.2,306.1 747.5,191.3 		"/>
		<g>
			<polygon class="st3" points="460,191.3 172.5,191.3 203.4,538.5 460,538.5 460,423.7 308.4,423.7 297.9,306.1 460,306.1 			"/>
			<polygon class="st3" points="460,722 459.9,722 332,687.4 323.4,591.8 208.2,591.8 224.7,776.1 459.8,841.4 460,841.4 			"/>
		</g>
	</g>
</g>
</svg>
