<?xml version="1.0" encoding="UTF-8"?><svg id="a" xmlns="http://www.w3.org/2000/svg" width="71.12" height="31.44" viewBox="0 0 71.12 31.44"><g id="b"><g><path d="M42.79,22.57l-.13,1.03h-2.42v7.69h-1.2v-7.69h-2.48v-1.03h6.23Z" fill="#fff"/><path d="M48.11,25.4c.52,.63,.78,1.47,.78,2.54,0,.69-.12,1.3-.35,1.83-.24,.53-.58,.93-1.03,1.23-.45,.29-.98,.44-1.59,.44-.93,0-1.67-.31-2.19-.93-.52-.63-.79-1.47-.79-2.54,0-.69,.12-1.3,.35-1.83s.58-.93,1.03-1.23c.45-.3,.98-.44,1.61-.44,.93,0,1.67,.31,2.18,.93Zm-3.91,2.56c0,1.69,.58,2.54,1.72,2.54s1.72-.85,1.72-2.56-.57-2.54-1.71-2.54-1.74,.85-1.74,2.56h0Z" fill="#fff"/><path d="M55.66,25.38c.45,.61,.67,1.47,.67,2.56,0,.69-.11,1.3-.32,1.83s-.51,.93-.91,1.23c-.39,.29-.86,.44-1.39,.44-.7,0-1.29-.3-1.77-.89l-.11,.73h-1.03v-9.35l1.17-.14v3.65c.48-.66,1.11-.98,1.88-.98s1.36,.31,1.81,.91h0Zm-1.02,4.51c.29-.41,.44-1.06,.44-1.94s-.13-1.55-.41-1.95c-.27-.4-.65-.6-1.15-.6-.59,0-1.11,.34-1.55,1.04v3.19c.18,.28,.39,.5,.65,.66s.53,.24,.82,.24c.51,0,.91-.21,1.21-.63h0Z" fill="#fff"/><path d="M58.63,31.05c-.25-.26-.37-.62-.37-1.08v-8.03l1.17-.14v8.14c0,.18,.03,.32,.09,.41s.17,.13,.32,.13,.3-.03,.43-.08l.3,.81c-.28,.15-.58,.22-.92,.22-.43,0-.77-.13-1.02-.39h0Z" fill="#fff"/><path d="M63.18,21.65c.15,.15,.22,.34,.22,.57s-.08,.41-.22,.56c-.15,.15-.35,.22-.6,.22s-.43-.07-.58-.22-.22-.34-.22-.56,.08-.41,.22-.57c.15-.15,.34-.22,.58-.22s.44,.08,.6,.22Zm0,2.97v6.67h-1.17v-6.67h1.17Z" fill="#fff"/><path d="M70.45,25.38c.45,.61,.67,1.47,.67,2.56,0,.69-.11,1.3-.32,1.83s-.51,.93-.91,1.23c-.39,.29-.86,.44-1.39,.44-.7,0-1.29-.3-1.77-.89l-.11,.73h-1.03v-9.35l1.17-.14v3.65c.48-.66,1.11-.98,1.88-.98s1.36,.31,1.81,.91h0Zm-1.02,4.51c.29-.41,.44-1.06,.44-1.94s-.13-1.55-.41-1.95c-.27-.4-.65-.6-1.15-.6-.59,0-1.11,.34-1.55,1.04v3.19c.18,.28,.39,.5,.65,.66s.53,.24,.82,.24c.51,0,.91-.21,1.21-.63h0Z" fill="#fff"/></g></g><g id="c"><g><path d="M11.49,17.97l-.93-3.86H5.32l-.91,3.86H0L5.42,0h5.16l5.42,17.96h-4.51Zm-5.44-6.94h3.78l-1.89-7.93s-1.89,7.93-1.89,7.93Z" fill="#fff"/><path d="M26.08,3.99l-.65,3.97c-.52-.12-.93-.18-1.24-.18-.81,0-1.43,.29-1.86,.84-.42,.56-.76,1.41-.99,2.53v6.82h-4.1V4.2h3.58l.34,2.67c.31-.95,.78-1.69,1.41-2.24s1.35-.82,2.14-.82c.5,0,.96,.06,1.37,.18Z" fill="#fff"/><path d="M36.27,17.32c-.5,.35-1.09,.61-1.75,.8-.67,.19-1.33,.29-1.99,.29-3.01-.02-4.51-1.68-4.51-4.98V7.05h-1.94v-2.85h1.94V1.22l4.1-.47v3.45h3.16l-.44,2.85h-2.72v6.33c0,.64,.1,1.1,.31,1.37s.54,.41,.99,.41,.96-.15,1.48-.44l1.37,2.59h0Z" fill="#fff"/><path d="M49.25,17.97h-3.55l-.18-1.74c-1,1.45-2.39,2.18-4.17,2.18-1.26,0-2.21-.38-2.86-1.14s-.97-1.82-.97-3.19V4.2h4.1V13.56c0,.67,.1,1.15,.33,1.41,.22,.27,.54,.4,.99,.4,.86,0,1.61-.54,2.23-1.61V4.2h4.1v13.76h-.02Z" fill="#fff"/><path d="M61.31,3.99l-.65,3.97c-.52-.12-.93-.18-1.24-.18-.81,0-1.43,.29-1.85,.84-.42,.56-.76,1.41-1,2.53v6.82h-4.1V4.2h3.58l.34,2.67c.31-.95,.79-1.69,1.41-2.24,.63-.54,1.35-.82,2.14-.82,.5,0,.96,.06,1.37,.18Z" fill="#fff"/></g></g></svg>